<svg xmlns="http://www.w3.org/2000/svg" fill="none" viewBox="6.266 0 63.624 47.51176470588236" style="max-height: 500px" width="63.624" height="47.51176470588236">
<mask height="41" width="241" y="0" x="0" maskUnits="userSpaceOnUse" style="mask-type:alpha" id="mask0_1_348">
<rect fill="#D9D9D9" height="41" width="239.167" x="0.916687"/>
</mask>
<g mask="url(#mask0_1_348)">
<mask height="32" width="33" y="5" x="11" maskUnits="userSpaceOnUse" style="mask-type:luminance" id="mask1_1_348">
<path fill="white" d="M15.4847 15.2486C15.0482 15.4775 14.7044 15.8506 14.512 16.3044C14.3195 16.7583 14.2903 17.2647 14.4292 17.7377C14.5682 18.2106 14.8667 18.6208 15.274 18.8985C15.6813 19.1761 16.1723 19.304 16.6633 19.2604C17.1543 19.2169 17.615 19.0045 17.9671 18.6595C18.3191 18.3144 18.5408 17.8581 18.5942 17.3681C18.6477 16.878 18.5297 16.3846 18.2604 15.9718C17.991 15.5589 17.5869 15.2522 17.1169 15.1037C16.9193 15.0391 16.7127 15.0067 16.5048 15.0078C16.1545 15.0072 15.8091 15.0897 15.497 15.2486M12.7651 13.0268C12.7232 13.1612 12.7221 13.3049 12.7619 13.4399C12.8016 13.5749 12.8805 13.6951 12.9885 13.7853C13.0966 13.8755 13.229 13.9317 13.3689 13.9467C13.5088 13.9617 13.6501 13.935 13.7748 13.8697C13.8995 13.8045 14.0021 13.7038 14.0696 13.5803C14.1371 13.4569 14.1666 13.3161 14.1541 13.1759C14.1417 13.0357 14.088 12.9024 13.9998 12.7927C13.9117 12.683 13.793 12.6019 13.6587 12.5596C13.5941 12.5331 13.5245 12.5206 13.4547 12.5229C13.3005 12.5232 13.1504 12.5721 13.0255 12.6625C12.9006 12.753 12.8074 12.8804 12.759 13.0268M16.1906 8.81378C15.7241 9.1183 15.3776 9.5752 15.2103 10.1066C15.0429 10.638 15.065 11.211 15.2729 11.7279C15.4807 12.2448 15.8614 12.6736 16.3501 12.9412C16.8387 13.2089 17.405 13.2987 17.9525 13.1955C18.5 13.0923 18.9947 12.8025 19.3523 12.3753C19.71 11.9482 19.9085 11.4102 19.9139 10.8531C19.9193 10.296 19.7313 9.75428 19.382 9.32027C19.0327 8.88627 18.5436 8.58685 17.9983 8.47306C17.8458 8.43728 17.6897 8.41947 17.5331 8.42001C17.0573 8.42136 16.5917 8.55792 16.1906 8.81378ZM29.0113 7.58965C28.6816 7.66793 28.3766 7.8271 28.1238 8.05278C27.8699 8.2836 27.6622 8.56053 27.5117 8.86886C27.3607 9.17285 27.2629 9.48092 27.1384 9.77267C26.8906 10.342 26.4865 10.8294 25.9731 11.1786C25.4596 11.5277 24.8578 11.7243 24.2372 11.7456C23.9924 11.7456 23.7394 11.7313 23.4844 11.717C23.0088 11.6729 22.5299 11.6811 22.0562 11.7415C21.319 11.8586 20.6431 12.2217 20.1384 12.7718C19.6593 13.3209 19.3872 14.0202 19.3693 14.7487C19.353 15.4547 19.5916 16.1361 19.7079 16.7889C19.7761 17.239 19.7502 17.6983 19.6317 18.1378C19.5132 18.5773 19.3048 18.9874 19.0197 19.3422C18.7345 19.6969 18.3788 19.9887 17.975 20.1989C17.5713 20.4091 17.1283 20.5332 16.6742 20.5633C16.46 20.565 16.2464 20.5848 16.0356 20.6225C15.8439 20.6634 15.6674 20.7566 15.5255 20.8918C15.405 21.0385 15.3189 21.2102 15.2733 21.3945C15.2278 21.5788 15.2241 21.7709 15.2624 21.9568C15.4193 23.8763 15.9203 25.7519 16.7415 27.4939C17.642 29.3928 18.8991 31.1008 20.4445 32.5251C21.9341 33.896 23.7097 34.919 25.6429 35.5201C27.4893 36.075 29.3805 36.1525 31.231 36.1321H43.8905V24.4458C43.9028 22.5954 43.8497 20.7 43.3927 18.8088C42.9153 16.8402 42.0344 14.9923 40.8057 13.3818C39.5099 11.7029 37.8704 10.32 35.997 9.32587C34.1243 8.35287 32.08 7.75413 29.9784 7.56313C29.8246 7.54542 29.67 7.53588 29.5152 7.53456C29.3424 7.5328 29.1699 7.55059 29.0011 7.58761M11.9062 7.68962C11.6263 7.83654 11.4059 8.07593 11.2827 8.36704C11.1594 8.65815 11.1409 8.98298 11.2302 9.28623C11.3195 9.58948 11.5112 9.85238 11.7726 10.0302C12.034 10.208 12.3489 10.2897 12.6638 10.2614C12.9786 10.2331 13.2739 10.0966 13.4994 9.87505C13.7249 9.65349 13.8667 9.36063 13.9005 9.04631C13.9344 8.732 13.8582 8.41568 13.685 8.1512C13.5119 7.88672 13.2524 7.69044 12.9508 7.59577C12.8231 7.55403 12.6894 7.53336 12.555 7.53456C12.3294 7.53345 12.1069 7.58663 11.9062 7.68962ZM23.0049 6.43693C22.5478 6.67537 22.1875 7.06497 21.9855 7.53933C21.7835 8.01368 21.7522 8.54342 21.8971 9.03823C22.0419 9.53304 22.354 9.9623 22.7799 10.2528C23.2058 10.5433 23.7193 10.6771 24.2328 10.6314C24.7464 10.5857 25.2282 10.3632 25.5961 10.002C25.964 9.64082 26.1952 9.1632 26.2504 8.65058C26.3055 8.13795 26.1812 7.62207 25.8985 7.19088C25.6159 6.75968 25.1924 6.43987 24.7003 6.28596C24.4932 6.21665 24.2761 6.18218 24.0577 6.18395C23.6916 6.18304 23.3306 6.26978 23.0049 6.43693ZM20.4628 5.22709C20.3419 5.29002 20.2383 5.38184 20.1614 5.49438C20.0844 5.60693 20.0364 5.73673 20.0217 5.87226C20.0069 6.0078 20.0259 6.14489 20.0768 6.27135C20.1278 6.39782 20.2091 6.50976 20.3137 6.59724C20.4182 6.68472 20.5428 6.74503 20.6763 6.77282C20.8098 6.80062 20.948 6.79504 21.0788 6.75658C21.2096 6.71812 21.3289 6.64796 21.4261 6.55234C21.5233 6.45672 21.5954 6.33859 21.636 6.20843C21.6697 6.10488 21.6826 5.9957 21.6741 5.88713C21.6656 5.77856 21.6358 5.67274 21.5863 5.57572C21.5368 5.47869 21.4687 5.39237 21.3859 5.3217C21.303 5.25102 21.2071 5.19738 21.1034 5.16384C21.0268 5.13696 20.946 5.12384 20.8648 5.12508C20.7286 5.1251 20.5944 5.15726 20.473 5.21893"/>
</mask>
<g mask="url(#mask1_1_348)">
<path fill="url(#paint0_linear_1_348)" d="M25.3495 -11.1328L-4.26593 22.649L29.6371 52.3707L59.2525 18.5889L25.3495 -11.1328Z"/>
</g>
<path fill="#040000" d="M211.214 18.8802L207.231 20.8612C206.609 19.9481 205.71 19.2585 204.666 18.8936C203.623 18.5288 202.49 18.5077 201.434 18.8337C200.378 19.1596 199.454 19.8153 198.797 20.7047C198.141 21.5941 197.787 22.6703 197.787 23.7756C197.787 24.881 198.141 25.9572 198.797 26.8466C199.454 27.736 200.378 28.3917 201.434 28.7176C202.49 29.0435 203.623 29.0225 204.666 28.6576C205.71 28.2927 206.609 27.6032 207.231 26.6901L211.214 28.6691C210.141 30.4753 208.505 31.8792 206.557 32.6652C204.609 33.4511 202.456 33.5755 200.43 33.0193C198.405 32.4631 196.618 31.2571 195.344 29.5865C194.07 27.9159 193.38 25.8733 193.38 23.7726C193.38 21.6718 194.07 19.6292 195.344 17.9586C196.618 16.2881 198.405 15.082 200.43 14.5258C202.456 13.9696 204.609 14.094 206.557 14.88C208.505 15.6659 210.141 17.0699 211.214 18.8761V18.8802Z"/>
<path fill="url(#paint1_linear_1_348)" d="M52.8662 12.1699H61.6023V21.3672C61.6032 23.2287 61.2515 25.0736 60.5659 26.8043C59.8236 28.6812 58.7043 30.3859 57.2771 31.8131C55.8499 33.2402 54.1453 34.3595 52.2684 35.1019C50.5375 35.7868 48.6928 36.1385 46.8313 36.1383H38.2624V26.7676C38.2608 24.928 38.6069 23.1047 39.2825 21.3937C40.0169 19.5395 41.1233 17.8554 42.5335 16.4452C43.9437 15.035 45.6279 13.9285 47.4821 13.1941C49.196 12.5158 51.0229 12.1683 52.8662 12.1699Z" opacity="0.85"/>
<path fill="#040000" d="M221.382 19.9818C221.411 20.0248 221.449 20.0602 221.494 20.0848C221.54 20.1093 221.59 20.1223 221.642 20.1226C221.693 20.1218 221.743 20.1086 221.788 20.084C221.833 20.0595 221.872 20.0245 221.901 19.9818L225.31 14.7018H230.09L223.733 24.5458V32.8494H219.548V24.5458L213.193 14.7038H217.973L221.382 19.9818Z"/>
<path fill="#040000" d="M173.141 32.8474H161.342H173.141V29.1505H165.525V14.7018H161.342V32.8474"/>
<path fill="#040000" d="M148.726 32.8474H152.161L147.453 14.7018H143.499L140.642 25.2415H143.923L145.065 21.0285C145.083 20.9627 145.121 20.9045 145.175 20.863C145.229 20.8215 145.295 20.799 145.363 20.799C145.431 20.799 145.497 20.8215 145.551 20.863C145.605 20.9045 145.644 20.9627 145.661 21.0285L148.726 32.8474Z"/>
<path fill="#040000" d="M153.659 14.7018L150.799 25.2415H154.794L157.654 14.7018H153.659Z"/>
<path fill="#040000" d="M132.788 14.7018L138.109 32.8474H142.385L137.501 14.7018H132.788Z"/>
<path fill="#040000" d="M180.188 14.7018H176.864V27.6367H180.188V25.621H189.903V21.9262H180.188V18.3966H189.903V14.7018H176.864V18.3966"/>
<path fill="#040000" d="M189.903 29.1505H176.864V32.8474H189.903V29.1505Z"/>
<path fill="#040000" d="M130.234 20.192C130.685 21.3325 130.917 22.548 130.917 23.7746C130.917 25.0012 130.685 26.2167 130.234 27.3572C129.516 29.1716 128.269 30.7284 126.656 31.8253C125.042 32.9223 123.136 33.5089 121.185 33.5089C119.233 33.5089 117.327 32.9223 115.713 31.8253C114.1 30.7284 112.853 29.1716 112.135 27.3572C111.224 25.0557 111.224 22.4935 112.135 20.192C112.624 18.9558 113.362 17.833 114.302 16.893C115.242 15.9529 116.365 15.2155 117.601 14.7263C119.902 13.815 122.465 13.815 124.766 14.7263C126.003 15.215 127.126 15.9523 128.067 16.8924C129.007 17.8325 129.745 18.9555 130.234 20.192ZM126.293 21.7528C126.548 22.3962 126.679 23.0823 126.678 23.7746C126.679 24.467 126.549 25.1531 126.293 25.7965C125.887 26.8195 125.184 27.6972 124.273 28.3155C123.363 28.9339 122.288 29.2645 121.187 29.2645C120.087 29.2645 119.011 28.9339 118.101 28.3155C117.191 27.6972 116.487 26.8195 116.082 25.7965C115.567 24.4976 115.567 23.0517 116.082 21.7528C116.487 20.7297 117.191 19.8521 118.101 19.2337C119.011 18.6154 120.087 18.2847 121.187 18.2847C122.288 18.2847 123.363 18.6154 124.273 19.2337C125.184 19.8521 125.887 20.7297 126.293 21.7528Z" clip-rule="evenodd" fill-rule="evenodd"/>
<path fill="#040000" d="M75.9361 21.159C75.9098 21.2005 75.8722 21.2337 75.8278 21.2546C75.7834 21.2756 75.7339 21.2835 75.6852 21.2774C75.6395 21.2612 75.6012 21.2293 75.5769 21.1875C75.5526 21.1456 75.5439 21.0965 75.5525 21.0489V14.7018H71.368V32.8474H75.5525V27.5653C75.5523 27.456 75.5914 27.3502 75.6627 27.2674L76.4216 26.3718C76.4362 26.354 76.4546 26.3399 76.4755 26.3303C76.4963 26.3208 76.5191 26.3161 76.542 26.3167C76.5649 26.3172 76.5874 26.3228 76.6078 26.333C76.6283 26.3432 76.6462 26.3579 76.6604 26.3758L81.6446 32.8474H86.6288L79.1555 23.1462L86.3146 14.7018H81.4181L75.9361 21.159Z"/>
<path fill="#040000" d="M108.014 32.8474V14.7018H103.831V24.9151C103.83 24.9802 103.809 25.0435 103.771 25.0961C103.733 25.1487 103.679 25.1881 103.617 25.2088C103.555 25.2289 103.489 25.2288 103.427 25.2086C103.366 25.1884 103.312 25.1492 103.274 25.0966L95.7255 14.7018H91.541V32.8474H95.7255V22.6341C95.7255 22.5691 95.746 22.5057 95.7842 22.4531C95.8224 22.4005 95.8763 22.3613 95.9381 22.3412C95.9999 22.321 96.0665 22.3209 96.1283 22.3409C96.1902 22.3609 96.2441 22.4 96.2825 22.4525L103.831 32.8474"/>
</g>
<defs>
<linearGradient gradientUnits="userSpaceOnUse" y2="28.8369" x2="33.8295" y1="10.1181" x1="12.4773" id="paint0_linear_1_348">
<stop stop-color="#369DEC"/>
<stop stop-color="#2047EC" offset="1"/>
</linearGradient>
<linearGradient gradientUnits="userSpaceOnUse" y2="24.1541" x2="61.6023" y1="24.1541" x1="38.2685" id="paint1_linear_1_348">
<stop stop-color="#296AEC"/>
<stop stop-color="#2047EC" offset="1"/>
</linearGradient>
</defs>
</svg>