<?xml version="1.0" standalone="no"?>
<!DOCTYPE svg PUBLIC "-//W3C//DTD SVG 20010904//EN"
 "http://www.w3.org/TR/2001/REC-SVG-20010904/DTD/svg10.dtd">
<svg version="1.0" xmlns="http://www.w3.org/2000/svg"
 width="512.000000pt" height="512.000000pt" viewBox="0 0 512.000000 512.000000"
 preserveAspectRatio="xMidYMid meet">
<metadata>
Created by potrace 1.16, written by Peter Selinger 2001-2019
</metadata>
<g transform="translate(0.000000,512.000000) scale(0.100000,-0.100000)"
fill="#000000" stroke="none">
<path d="M4840 5013 c-186 -318 -416 -648 -625 -898 -120 -143 -354 -378 -565
-569 -351 -316 -550 -499 -550 -507 0 -4 -30 -41 -67 -82 -38 -40 -134 -145
-214 -234 -229 -249 -645 -626 -989 -893 -52 -41 -169 -133 -260 -205 -567
-452 -1159 -854 -1477 -1005 -77 -36 -93 -47 -93 -66 0 -35 11 -35 70 -3 29
16 59 29 67 29 7 0 13 5 13 10 0 6 8 10 18 10 17 0 30 6 112 54 25 14 61 34
80 43 19 10 58 35 85 55 28 21 55 38 61 38 5 0 19 8 30 18 10 9 39 31 64 47
25 17 51 35 58 42 6 6 21 15 32 18 11 3 20 10 20 15 0 5 9 11 19 15 11 3 44
25 75 48 30 23 67 51 82 62 15 11 40 30 55 42 15 13 30 23 33 23 3 0 14 8 24
17 50 48 92 83 101 83 5 0 11 4 13 8 2 4 41 39 88 77 47 38 94 77 105 87 80
69 171 134 263 188 135 80 249 168 377 290 55 53 129 120 165 150 84 72 117
101 208 185 160 146 225 210 561 544 190 189 390 382 444 428 54 47 112 99
130 117 18 18 86 81 152 141 198 177 454 423 560 539 55 60 112 122 128 138
15 16 27 32 27 34 0 3 13 19 29 37 50 54 230 297 289 387 30 47 57 87 61 90 3
3 29 40 56 83 28 43 67 100 88 127 20 28 35 50 31 50 -3 0 8 18 25 39 17 21
31 43 31 47 0 5 9 20 21 34 11 14 29 37 40 53 l20 27 -54 0 -54 0 -63 -107z"/>
<path d="M5080 4805 c-351 -420 -759 -853 -1140 -1209 -112 -105 -234 -220
-270 -255 l-65 -63 64 56 c35 32 65 55 68 53 5 -6 54 35 133 112 36 35 78 72
94 82 16 10 57 44 90 77 34 32 151 141 261 242 110 100 234 217 275 259 99
100 346 364 395 421 21 25 61 68 87 96 49 50 49 51 46 111 l-3 60 -35 -42z"/>
<path d="M3602 4383 c-139 -187 -383 -471 -632 -739 -103 -110 -119 -128 -202
-226 -356 -419 -736 -743 -1453 -1236 -282 -195 -554 -391 -749 -541 -250
-193 -560 -445 -486 -395 8 6 33 25 56 42 23 17 44 29 48 25 3 -3 6 -1 6 5 0
7 5 12 12 12 16 0 90 50 106 73 7 9 19 17 26 17 7 0 30 15 50 33 86 77 113 99
154 126 24 16 44 32 45 37 1 5 5 8 9 7 5 -2 8 2 8 9 0 6 3 8 6 5 4 -4 14 2 23
12 9 10 36 30 60 46 48 30 58 37 100 75 15 14 40 34 55 45 16 11 33 25 40 30
12 11 175 123 204 140 9 6 19 13 22 16 9 11 100 79 106 79 3 0 20 11 38 25 18
14 36 25 39 25 4 0 16 8 26 17 32 29 41 36 156 112 61 40 120 77 133 82 12 5
22 13 22 18 0 11 63 52 85 55 8 1 18 6 22 11 4 4 2 5 -4 1 -7 -4 -13 -5 -13
-2 0 3 10 10 21 17 17 9 20 8 13 -2 -9 -14 110 75 141 106 11 11 22 20 25 20
14 1 60 39 60 50 0 7 12 22 27 34 83 63 103 79 139 112 21 20 85 77 140 127
109 98 360 358 494 512 46 52 86 97 89 100 3 3 35 37 70 75 36 39 92 99 125
135 143 154 185 199 246 269 36 41 71 83 79 95 8 12 18 23 22 26 21 15 140
175 222 300 55 83 59 90 54 90 -2 0 -41 -48 -85 -107z"/>
<path d="M3554 3238 l-29 -33 33 29 c17 17 32 31 32 33 0 8 -8 1 -36 -29z"/>
<path d="M3449 3143 l-24 -28 28 24 c15 14 27 26 27 28 0 8 -8 1 -31 -24z"/>
<path d="M5010 2101 c-158 -56 -272 -110 -520 -243 -425 -230 -744 -429 -1092
-681 -70 -51 -200 -143 -290 -205 -149 -102 -231 -163 -202 -148 7 3 15 -1 18
-10 4 -11 2 -15 -8 -11 -9 4 -12 0 -9 -13 3 -10 0 -27 -6 -38 -7 -12 -7 -23
-2 -26 13 -8 63 53 54 67 -3 7 -3 9 2 5 4 -4 16 3 26 15 10 12 18 17 19 12 0
-6 -6 -17 -12 -25 -7 -7 21 14 62 47 371 297 832 599 1354 888 230 127 493
247 623 285 31 10 40 17 35 28 -4 11 -1 14 11 9 11 -4 18 1 23 16 4 12 11 25
16 28 6 4 8 13 6 22 -2 12 -21 9 -108 -22z"/>
</g>
</svg>